<svg width="20" height="20" viewBox="0 0 20 20" fill="none" xmlns="http://www.w3.org/2000/svg">
<g id="Chat#1">
<path id="Path 75" opacity="0.3" fill-rule="evenodd" clip-rule="evenodd" d="M4.16667 12.5L2.5 17.9167L7.91667 16.25L4.16667 12.5Z" fill="white"/>
<path id="Combined Shape" fill-rule="evenodd" clip-rule="evenodd" d="M11.2497 17.5C15.6219 17.5 19.1663 13.9556 19.1663 9.58332C19.1663 5.21107 15.6219 1.66666 11.2497 1.66666C6.87742 1.66666 3.33301 5.21107 3.33301 9.58332C3.33301 13.9556 6.87742 17.5 11.2497 17.5ZM7.08301 10.8333C7.77336 10.8333 8.33301 10.2737 8.33301 9.58332C8.33301 8.89297 7.77336 8.33332 7.08301 8.33332C6.39265 8.33332 5.83301 8.89297 5.83301 9.58332C5.83301 10.2737 6.39265 10.8333 7.08301 10.8333ZM12.4997 9.58332C12.4997 10.2737 11.94 10.8333 11.2497 10.8333C10.5593 10.8333 9.99967 10.2737 9.99967 9.58332C9.99967 8.89297 10.5593 8.33332 11.2497 8.33332C11.94 8.33332 12.4997 8.89297 12.4997 9.58332ZM15.4163 10.8333C16.1067 10.8333 16.6663 10.2737 16.6663 9.58332C16.6663 8.89297 16.1067 8.33332 15.4163 8.33332C14.726 8.33332 14.1663 8.89297 14.1663 9.58332C14.1663 10.2737 14.726 10.8333 15.4163 10.8333Z" fill="white"/>
</g>
</svg>
