<svg width="90" height="60" viewBox="0 0 90 60" fill="none" xmlns="http://www.w3.org/2000/svg">
<rect width="90" height="60" fill="white"/>
<rect width="90" height="1" fill="#F0F3F5"/>
<path opacity="0.3" fill-rule="evenodd" clip-rule="evenodd" d="M38 11C36.3431 11 35 12.3431 35 14V23C35 24.6569 36.3431 26 38 26H42.0165L44.0887 29.1255C44.5036 29.7513 45.4344 29.7137 45.7975 29.0566L47.4862 26H52C53.6569 26 55 24.6569 55 23V14C55 12.3431 53.6569 11 52 11H38Z" fill="#8A9BA3"/>
<path opacity="0.3" fill-rule="evenodd" clip-rule="evenodd" d="M39 15H48C48.5523 15 49 15.4477 49 16C49 16.5523 48.5523 17 48 17H39C38.4477 17 38 16.5523 38 16C38 15.4477 38.4477 15 39 15ZM39 19H44C44.5523 19 45 19.4477 45 20C45 20.5523 44.5523 21 44 21H39C38.4477 21 38 20.5523 38 20C38 19.4477 38.4477 19 39 19Z" fill="#8A9BA3"/>
<path d="M32.392 49.18C31.532 49.18 30.802 48.99 30.202 48.61C29.602 48.23 29.144 47.702 28.828 47.026C28.516 46.35 28.36 45.568 28.36 44.68C28.36 43.792 28.516 43.01 28.828 42.334C29.144 41.658 29.602 41.13 30.202 40.75C30.802 40.37 31.532 40.18 32.392 40.18C33.392 40.18 34.214 40.434 34.858 40.942C35.506 41.45 35.952 42.134 36.196 42.994L35.11 43.282C34.934 42.638 34.62 42.13 34.168 41.758C33.716 41.386 33.124 41.2 32.392 41.2C31.748 41.2 31.212 41.346 30.784 41.638C30.356 41.93 30.034 42.338 29.818 42.862C29.602 43.382 29.492 43.988 29.488 44.68C29.484 45.368 29.59 45.974 29.806 46.498C30.022 47.018 30.346 47.426 30.778 47.722C31.21 48.014 31.748 48.16 32.392 48.16C33.124 48.16 33.716 47.974 34.168 47.602C34.62 47.226 34.934 46.718 35.11 46.078L36.196 46.366C35.952 47.222 35.506 47.906 34.858 48.418C34.214 48.926 33.392 49.18 32.392 49.18ZM42.1259 49V45.754C42.1259 45.446 42.0979 45.15 42.0419 44.866C41.9899 44.582 41.8959 44.328 41.7599 44.104C41.6279 43.876 41.4479 43.696 41.2199 43.564C40.9959 43.432 40.7119 43.366 40.3679 43.366C40.0999 43.366 39.8559 43.412 39.6359 43.504C39.4199 43.592 39.2339 43.728 39.0779 43.912C38.9219 44.096 38.7999 44.328 38.7119 44.608C38.6279 44.884 38.5859 45.21 38.5859 45.586L37.8839 45.37C37.8839 44.742 37.9959 44.204 38.2199 43.756C38.4479 43.304 38.7659 42.958 39.1739 42.718C39.5859 42.474 40.0699 42.352 40.6259 42.352C41.0459 42.352 41.4039 42.418 41.6999 42.55C41.9959 42.682 42.2419 42.858 42.4379 43.078C42.6339 43.294 42.7879 43.538 42.8999 43.81C43.0119 44.078 43.0899 44.352 43.1339 44.632C43.1819 44.908 43.2059 45.17 43.2059 45.418V49H42.1259ZM37.5059 49V40.36H38.4659V45.13H38.5859V49H37.5059ZM46.6078 49.18C46.1238 49.18 45.7178 49.092 45.3898 48.916C45.0658 48.736 44.8198 48.5 44.6518 48.208C44.4878 47.916 44.4058 47.596 44.4058 47.248C44.4058 46.908 44.4698 46.614 44.5978 46.366C44.7298 46.114 44.9138 45.906 45.1498 45.742C45.3858 45.574 45.6678 45.442 45.9958 45.346C46.3038 45.262 46.6478 45.19 47.0278 45.13C47.4118 45.066 47.7998 45.008 48.1918 44.956C48.5838 44.904 48.9498 44.854 49.2898 44.806L48.9058 45.028C48.9178 44.452 48.8018 44.026 48.5578 43.75C48.3178 43.474 47.9018 43.336 47.3098 43.336C46.9178 43.336 46.5738 43.426 46.2778 43.606C45.9858 43.782 45.7798 44.07 45.6598 44.47L44.6458 44.164C44.8018 43.596 45.1038 43.15 45.5518 42.826C45.9998 42.502 46.5898 42.34 47.3218 42.34C47.9098 42.34 48.4138 42.446 48.8338 42.658C49.2578 42.866 49.5618 43.182 49.7458 43.606C49.8378 43.806 49.8958 44.024 49.9198 44.26C49.9438 44.492 49.9558 44.736 49.9558 44.992V49H49.0078V47.446L49.2298 47.59C48.9858 48.114 48.6438 48.51 48.2038 48.778C47.7678 49.046 47.2358 49.18 46.6078 49.18ZM46.7698 48.286C47.1538 48.286 47.4858 48.218 47.7658 48.082C48.0498 47.942 48.2778 47.76 48.4498 47.536C48.6218 47.308 48.7338 47.06 48.7858 46.792C48.8458 46.592 48.8778 46.37 48.8818 46.126C48.8898 45.878 48.8938 45.688 48.8938 45.556L49.2658 45.718C48.9178 45.766 48.5758 45.812 48.2398 45.856C47.9038 45.9 47.5858 45.948 47.2858 46C46.9858 46.048 46.7158 46.106 46.4758 46.174C46.2998 46.23 46.1338 46.302 45.9778 46.39C45.8258 46.478 45.7018 46.592 45.6058 46.732C45.5138 46.868 45.4678 47.038 45.4678 47.242C45.4678 47.418 45.5118 47.586 45.5998 47.746C45.6918 47.906 45.8318 48.036 46.0198 48.136C46.2118 48.236 46.4618 48.286 46.7698 48.286ZM55.1338 49C54.7498 49.076 54.3698 49.106 53.9938 49.09C53.6218 49.078 53.2898 49.004 52.9978 48.868C52.7058 48.728 52.4838 48.512 52.3318 48.22C52.2038 47.964 52.1338 47.706 52.1218 47.446C52.1138 47.182 52.1098 46.884 52.1098 46.552V40.72H53.1778V46.504C53.1778 46.768 53.1798 46.994 53.1838 47.182C53.1918 47.37 53.2338 47.532 53.3098 47.668C53.4538 47.924 53.6818 48.074 53.9938 48.118C54.3098 48.162 54.6898 48.15 55.1338 48.082V49ZM50.7958 43.402V42.52H55.1338V43.402H50.7958ZM58.8974 49.174C58.1254 49.174 57.4914 49.006 56.9954 48.67C56.5034 48.33 56.2014 47.856 56.0894 47.248L57.1814 47.074C57.2694 47.426 57.4714 47.706 57.7874 47.914C58.1034 48.118 58.4954 48.22 58.9634 48.22C59.4074 48.22 59.7554 48.128 60.0074 47.944C60.2594 47.76 60.3854 47.51 60.3854 47.194C60.3854 47.01 60.3434 46.862 60.2594 46.75C60.1754 46.634 60.0014 46.526 59.7374 46.426C59.4774 46.326 59.0834 46.206 58.5554 46.066C57.9834 45.914 57.5334 45.756 57.2054 45.592C56.8774 45.428 56.6434 45.238 56.5034 45.022C56.3634 44.806 56.2934 44.544 56.2934 44.236C56.2934 43.856 56.3974 43.524 56.6054 43.24C56.8134 42.952 57.1034 42.73 57.4754 42.574C57.8514 42.418 58.2874 42.34 58.7834 42.34C59.2754 42.34 59.7154 42.418 60.1034 42.574C60.4914 42.73 60.8034 42.952 61.0394 43.24C61.2794 43.524 61.4214 43.856 61.4654 44.236L60.3734 44.434C60.3214 44.086 60.1534 43.812 59.8694 43.612C59.5894 43.412 59.2274 43.306 58.7834 43.294C58.3634 43.278 58.0214 43.352 57.7574 43.516C57.4974 43.68 57.3674 43.902 57.3674 44.182C57.3674 44.338 57.4154 44.472 57.5114 44.584C57.6114 44.696 57.7934 44.802 58.0574 44.902C58.3254 45.002 58.7134 45.116 59.2214 45.244C59.7934 45.388 60.2434 45.546 60.5714 45.718C60.9034 45.886 61.1394 46.086 61.2794 46.318C61.4194 46.546 61.4894 46.828 61.4894 47.164C61.4894 47.788 61.2594 48.28 60.7994 48.64C60.3394 48.996 59.7054 49.174 58.8974 49.174Z" fill="#8A9BA3"/>
</svg>
