<svg width="30" height="30" viewBox="0 0 30 30" fill="none" xmlns="http://www.w3.org/2000/svg">
<g clip-path="url(#clip0_277_449)">
<path opacity="0.3" fill-rule="evenodd" clip-rule="evenodd" d="M3.75 24.75C3.75 25.5784 4.42157 26.25 5.25 26.25H27.25C28.0784 26.25 28.75 25.5784 28.75 24.75V10.25C28.75 9.42157 28.0784 8.75 27.25 8.75H13.75L10.4393 5.43934C10.158 5.15804 9.7765 5 9.37868 5H5.25C4.42157 5 3.75 5.67157 3.75 6.5V24.75Z" fill="white"/>
<path fill-rule="evenodd" clip-rule="evenodd" d="M1.25 22.25C1.25 23.0784 1.92157 23.75 2.75 23.75H24.75C25.5784 23.75 26.25 23.0784 26.25 22.25V7.75C26.25 6.92157 25.5784 6.25 24.75 6.25H11.25L7.93934 2.93934C7.65804 2.65804 7.2765 2.5 6.87868 2.5H2.75C1.92157 2.5 1.25 3.17157 1.25 4V22.25Z" fill="white"/>
</g>
<defs>
<clipPath id="clip0_277_449">
<rect width="30" height="30" fill="white"/>
</clipPath>
</defs>
</svg>
