<svg width="20" height="21" viewBox="0 0 20 21" fill="none" xmlns="http://www.w3.org/2000/svg">
<path fill-rule="evenodd" clip-rule="evenodd" d="M9.24634 15.1255C9.49 15.1469 9.74121 15.1582 10.0001 15.1582C14.091 15.1582 17.5001 10.1582 17.5001 10.1582C17.5001 10.1582 16.9421 9.33978 16.0066 8.36517L9.24634 15.1255Z" fill="#53666E"/>
<path fill-rule="evenodd" clip-rule="evenodd" d="M12.0876 5.57058C11.423 5.314 10.7221 5.1582 10 5.1582C4.54545 5.1582 2.5 10.1582 2.5 10.1582C2.5 10.1582 3.12505 11.6861 4.60551 13.0527L7.5 10.1582C7.5 8.77749 8.61929 7.6582 10 7.6582L12.0876 5.57058Z" fill="#53666E"/>
<rect opacity="0.3" x="4.25" y="15.5208" width="15.8333" height="1.66667" transform="rotate(-45 4.25 15.5208)" fill="#53666E"/>
</svg>
