<svg width="90" height="60" viewBox="0 0 90 60" fill="none" xmlns="http://www.w3.org/2000/svg">
<rect width="90" height="60" fill="white"/>
<rect width="90" height="1" fill="#F0F3F5"/>
<path fill-rule="evenodd" clip-rule="evenodd" d="M36.9571 16.4151C36.3626 16.7784 36 17.4249 36 18.1217V27C36 28.1046 36.8954 29 38 29H52C53.1046 29 54 28.1046 54 27V18.1217C54 17.4249 53.6374 16.7784 53.0429 16.4151L45.5215 11.8187C45.2013 11.623 44.7987 11.623 44.4786 11.8187L36.9571 16.4151ZM43 21C42.4477 21 42 21.4477 42 22V25C42 25.5523 42.4477 26 43 26H47C47.5523 26 48 25.5523 48 25V22C48 21.4477 47.5523 21 47 21H43Z" fill="#31AEE8"/>
<path d="M29.34 49V40.36H30.408V44.17H34.956V40.36H36.024V49H34.956V45.184H30.408V49H29.34ZM40.4672 49.18C39.8232 49.18 39.2672 49.034 38.7992 48.742C38.3352 48.45 37.9772 48.046 37.7252 47.53C37.4732 47.014 37.3472 46.422 37.3472 45.754C37.3472 45.074 37.4752 44.478 37.7312 43.966C37.9872 43.454 38.3492 43.056 38.8172 42.772C39.2852 42.484 39.8352 42.34 40.4672 42.34C41.1152 42.34 41.6732 42.486 42.1412 42.778C42.6092 43.066 42.9672 43.468 43.2152 43.984C43.4672 44.496 43.5932 45.086 43.5932 45.754C43.5932 46.43 43.4672 47.026 43.2152 47.542C42.9632 48.054 42.6032 48.456 42.1352 48.748C41.6672 49.036 41.1112 49.18 40.4672 49.18ZM40.4672 48.166C41.1392 48.166 41.6392 47.942 41.9672 47.494C42.2952 47.046 42.4592 46.466 42.4592 45.754C42.4592 45.022 42.2932 44.44 41.9612 44.008C41.6292 43.572 41.1312 43.354 40.4672 43.354C40.0152 43.354 39.6432 43.456 39.3512 43.66C39.0592 43.864 38.8412 44.146 38.6972 44.506C38.5532 44.866 38.4812 45.282 38.4812 45.754C38.4812 46.482 38.6492 47.066 38.9852 47.506C39.3212 47.946 39.8152 48.166 40.4672 48.166ZM52.6602 49L52.6662 44.854C52.6662 44.37 52.5362 43.992 52.2762 43.72C52.0202 43.444 51.6862 43.306 51.2742 43.306C51.0342 43.306 50.8062 43.362 50.5902 43.474C50.3742 43.582 50.1982 43.754 50.0622 43.99C49.9262 44.222 49.8582 44.52 49.8582 44.884L49.2942 44.656C49.2862 44.196 49.3802 43.794 49.5762 43.45C49.7762 43.102 50.0482 42.832 50.3922 42.64C50.7362 42.448 51.1242 42.352 51.5562 42.352C52.2322 42.352 52.7642 42.558 53.1522 42.97C53.5402 43.378 53.7342 43.928 53.7342 44.62L53.7282 49H52.6602ZM44.9082 49V42.52H45.8622V44.254H45.9822V49H44.9082ZM48.7902 49L48.7962 44.896C48.7962 44.4 48.6682 44.012 48.4122 43.732C48.1562 43.448 47.8162 43.306 47.3922 43.306C46.9722 43.306 46.6322 43.45 46.3722 43.738C46.1122 44.026 45.9822 44.408 45.9822 44.884L45.4182 44.548C45.4182 44.128 45.5182 43.752 45.7182 43.42C45.9182 43.088 46.1902 42.828 46.5342 42.64C46.8782 42.448 47.2682 42.352 47.7042 42.352C48.1402 42.352 48.5202 42.444 48.8442 42.628C49.1682 42.812 49.4182 43.076 49.5942 43.42C49.7702 43.76 49.8582 44.166 49.8582 44.638L49.8522 49H48.7902ZM58.0464 49.18C57.4104 49.18 56.8544 49.04 56.3784 48.76C55.9064 48.476 55.5384 48.082 55.2744 47.578C55.0104 47.07 54.8784 46.478 54.8784 45.802C54.8784 45.094 55.0084 44.482 55.2684 43.966C55.5284 43.446 55.8904 43.046 56.3544 42.766C56.8224 42.482 57.3704 42.34 57.9984 42.34C58.6504 42.34 59.2044 42.49 59.6604 42.79C60.1204 43.09 60.4644 43.518 60.6924 44.074C60.9244 44.63 61.0244 45.292 60.9924 46.06H59.9124V45.676C59.9004 44.88 59.7384 44.286 59.4264 43.894C59.1144 43.498 58.6504 43.3 58.0344 43.3C57.3744 43.3 56.8724 43.512 56.5284 43.936C56.1844 44.36 56.0124 44.968 56.0124 45.76C56.0124 46.524 56.1844 47.116 56.5284 47.536C56.8724 47.956 57.3624 48.166 57.9984 48.166C58.4264 48.166 58.7984 48.068 59.1144 47.872C59.4304 47.676 59.6784 47.394 59.8584 47.026L60.8844 47.38C60.6324 47.952 60.2524 48.396 59.7444 48.712C59.2404 49.024 58.6744 49.18 58.0464 49.18ZM55.6524 46.06V45.202H60.4404V46.06H55.6524Z" fill="#31AEE8"/>
</svg>
