<svg width="90" height="60" viewBox="0 0 90 60" fill="none" xmlns="http://www.w3.org/2000/svg">
<rect width="90" height="60" fill="white"/>
<rect width="90" height="1" fill="#F0F3F5"/>
<path fill-rule="evenodd" clip-rule="evenodd" d="M38.5 12C37.6716 12 37 12.6716 37 13.5V14.5C37 15.3284 37.6716 16 38.5 16H42.5C43.3284 16 44 15.3284 44 14.5V13.5C44 12.6716 43.3284 12 42.5 12H38.5ZM47.5 24C46.6716 24 46 24.6716 46 25.5V26.5C46 27.3284 46.6716 28 47.5 28H51.5C52.3284 28 53 27.3284 53 26.5V25.5C53 24.6716 52.3284 24 51.5 24H47.5Z" fill="#8A9BA3"/>
<path opacity="0.3" fill-rule="evenodd" clip-rule="evenodd" d="M47.5 12C46.6716 12 46 12.6716 46 13.5V20.5C46 21.3284 46.6716 22 47.5 22H51.5C52.3284 22 53 21.3284 53 20.5V13.5C53 12.6716 52.3284 12 51.5 12H47.5ZM38.5 18C37.6716 18 37 18.6716 37 19.5V26.5C37 27.3284 37.6716 28 38.5 28H42.5C43.3284 28 44 27.3284 44 26.5V19.5C44 18.6716 43.3284 18 42.5 18H38.5Z" fill="#8A9BA3"/>
<path d="M31.34 49V40.36H32.312L35.576 47.242L38.822 40.36H39.806V48.994H38.792V42.706L35.858 49H35.288L32.354 42.706V49H31.34ZM44.2484 49.18C43.6044 49.18 43.0484 49.034 42.5804 48.742C42.1164 48.45 41.7584 48.046 41.5064 47.53C41.2544 47.014 41.1284 46.422 41.1284 45.754C41.1284 45.074 41.2564 44.478 41.5124 43.966C41.7684 43.454 42.1304 43.056 42.5984 42.772C43.0664 42.484 43.6164 42.34 44.2484 42.34C44.8964 42.34 45.4544 42.486 45.9224 42.778C46.3904 43.066 46.7484 43.468 46.9964 43.984C47.2484 44.496 47.3744 45.086 47.3744 45.754C47.3744 46.43 47.2484 47.026 46.9964 47.542C46.7444 48.054 46.3844 48.456 45.9164 48.748C45.4484 49.036 44.8924 49.18 44.2484 49.18ZM44.2484 48.166C44.9204 48.166 45.4204 47.942 45.7484 47.494C46.0764 47.046 46.2404 46.466 46.2404 45.754C46.2404 45.022 46.0744 44.44 45.7424 44.008C45.4104 43.572 44.9124 43.354 44.2484 43.354C43.7964 43.354 43.4244 43.456 43.1324 43.66C42.8404 43.864 42.6224 44.146 42.4784 44.506C42.3344 44.866 42.2624 45.282 42.2624 45.754C42.2624 46.482 42.4304 47.066 42.7664 47.506C43.1024 47.946 43.5964 48.166 44.2484 48.166ZM48.6955 49V42.52H49.6495V44.086L49.4935 43.882C49.5695 43.682 49.6675 43.498 49.7875 43.33C49.9115 43.162 50.0495 43.024 50.2015 42.916C50.3695 42.78 50.5595 42.676 50.7715 42.604C50.9835 42.532 51.1995 42.49 51.4195 42.478C51.6395 42.462 51.8455 42.476 52.0375 42.52V43.522C51.8135 43.462 51.5675 43.446 51.2995 43.474C51.0315 43.502 50.7835 43.6 50.5555 43.768C50.3475 43.916 50.1855 44.096 50.0695 44.308C49.9575 44.52 49.8795 44.75 49.8355 44.998C49.7915 45.242 49.7695 45.492 49.7695 45.748V49H48.6955ZM55.8628 49.18C55.2268 49.18 54.6708 49.04 54.1948 48.76C53.7228 48.476 53.3548 48.082 53.0908 47.578C52.8268 47.07 52.6948 46.478 52.6948 45.802C52.6948 45.094 52.8248 44.482 53.0848 43.966C53.3448 43.446 53.7068 43.046 54.1708 42.766C54.6388 42.482 55.1868 42.34 55.8148 42.34C56.4668 42.34 57.0208 42.49 57.4768 42.79C57.9368 43.09 58.2808 43.518 58.5088 44.074C58.7408 44.63 58.8408 45.292 58.8088 46.06H57.7288V45.676C57.7168 44.88 57.5548 44.286 57.2428 43.894C56.9308 43.498 56.4668 43.3 55.8508 43.3C55.1908 43.3 54.6888 43.512 54.3448 43.936C54.0008 44.36 53.8288 44.968 53.8288 45.76C53.8288 46.524 54.0008 47.116 54.3448 47.536C54.6888 47.956 55.1788 48.166 55.8148 48.166C56.2428 48.166 56.6148 48.068 56.9308 47.872C57.2468 47.676 57.4948 47.394 57.6748 47.026L58.7008 47.38C58.4488 47.952 58.0688 48.396 57.5608 48.712C57.0568 49.024 56.4908 49.18 55.8628 49.18ZM53.4688 46.06V45.202H58.2568V46.06H53.4688Z" fill="#8A9BA3"/>
</svg>
