<svg width="30" height="30" viewBox="0 0 30 30" fill="none" xmlns="http://www.w3.org/2000/svg">
<path opacity="0.4" d="M25.625 12.7375H22.0125C19.05 12.7375 16.6375 10.325 16.6375 7.3625V3.75C16.6375 3.0625 16.075 2.5 15.3875 2.5H10.0875C6.2375 2.5 3.125 5 3.125 9.4625V20.5375C3.125 25 6.2375 27.5 10.0875 27.5H19.9125C23.7625 27.5 26.875 25 26.875 20.5375V13.9875C26.875 13.3 26.3125 12.7375 25.625 12.7375Z" fill="#F3F9FB"/>
<path d="M19.7502 2.76249C19.2377 2.24999 18.3502 2.59999 18.3502 3.31249V7.67499C18.3502 9.49999 19.9002 11.0125 21.7877 11.0125C22.9752 11.025 24.6252 11.025 26.0377 11.025C26.7502 11.025 27.1252 10.1875 26.6252 9.68749C24.8252 7.87499 21.6002 4.61249 19.7502 2.76249Z" fill="#F3F9FB"/>
<path d="M14.4124 15.5875L11.9124 13.0875C11.8999 13.075 11.8874 13.075 11.8874 13.0625C11.8124 12.9875 11.7124 12.925 11.6124 12.875C11.5999 12.875 11.5999 12.875 11.5874 12.875C11.4874 12.8375 11.3874 12.825 11.2874 12.8125C11.2499 12.8125 11.2249 12.8125 11.1874 12.8125C11.1124 12.8125 11.0249 12.8375 10.9499 12.8625C10.9124 12.875 10.8874 12.8875 10.8624 12.9C10.7624 12.95 10.6624 13 10.5874 13.0875L8.08743 15.5875C7.72493 15.95 7.72493 16.55 8.08743 16.9125C8.44993 17.275 9.04993 17.275 9.41243 16.9125L10.3124 16.0125V21.25C10.3124 21.7625 10.7374 22.1875 11.2499 22.1875C11.7624 22.1875 12.1874 21.7625 12.1874 21.25V16.0125L13.0874 16.9125C13.2749 17.1 13.5124 17.1875 13.7499 17.1875C13.9874 17.1875 14.2249 17.1 14.4124 16.9125C14.7749 16.55 14.7749 15.95 14.4124 15.5875Z" fill="#F3F9FB"/>
</svg>
