<svg width="90" height="60" viewBox="0 0 90 60" fill="none" xmlns="http://www.w3.org/2000/svg">
<rect width="90" height="60" fill="white"/>
<rect width="90" height="1" fill="#F0F3F5"/>
<path opacity="0.3" d="M47.2929 24.7071C46.9024 24.3166 46.9024 23.6834 47.2929 23.2929C47.6834 22.9024 48.3166 22.9024 48.7071 23.2929L52.7071 27.2929C53.0976 27.6834 53.0976 28.3166 52.7071 28.7071C52.3166 29.0976 51.6834 29.0976 51.2929 28.7071L47.2929 24.7071Z" fill="#8A9BA3"/>
<path fill-rule="evenodd" clip-rule="evenodd" d="M37 19C37 22.866 40.134 26 44 26C47.866 26 51 22.866 51 19C51 15.134 47.866 12 44 12C40.134 12 37 15.134 37 19ZM49 19C49 21.7614 46.7614 24 44 24C41.2386 24 39 21.7614 39 19C39 16.2386 41.2386 14 44 14C46.7614 14 49 16.2386 49 19Z" fill="#8A9BA3"/>
<path d="M28.906 49.18C28.294 49.18 27.742 49.076 27.25 48.868C26.762 48.66 26.358 48.364 26.038 47.98C25.722 47.592 25.516 47.134 25.42 46.606L26.524 46.432C26.664 46.976 26.954 47.402 27.394 47.71C27.838 48.014 28.36 48.166 28.96 48.166C29.348 48.166 29.698 48.106 30.01 47.986C30.326 47.862 30.576 47.686 30.76 47.458C30.944 47.23 31.036 46.96 31.036 46.648C31.036 46.456 31.002 46.292 30.934 46.156C30.87 46.016 30.78 45.898 30.664 45.802C30.552 45.702 30.424 45.618 30.28 45.55C30.136 45.482 29.986 45.426 29.83 45.382L27.628 44.728C27.388 44.656 27.156 44.566 26.932 44.458C26.708 44.346 26.508 44.208 26.332 44.044C26.156 43.876 26.016 43.676 25.912 43.444C25.808 43.208 25.756 42.93 25.756 42.61C25.756 42.098 25.888 41.662 26.152 41.302C26.42 40.938 26.782 40.66 27.238 40.468C27.694 40.276 28.208 40.182 28.78 40.186C29.36 40.19 29.878 40.294 30.334 40.498C30.794 40.698 31.174 40.986 31.474 41.362C31.778 41.738 31.982 42.188 32.086 42.712L30.952 42.91C30.892 42.558 30.758 42.256 30.55 42.004C30.346 41.748 30.09 41.552 29.782 41.416C29.474 41.276 29.136 41.204 28.768 41.2C28.416 41.196 28.098 41.252 27.814 41.368C27.53 41.484 27.304 41.646 27.136 41.854C26.968 42.058 26.884 42.294 26.884 42.562C26.884 42.826 26.96 43.04 27.112 43.204C27.264 43.364 27.45 43.492 27.67 43.588C27.894 43.68 28.112 43.756 28.324 43.816L29.968 44.29C30.156 44.342 30.372 44.414 30.616 44.506C30.864 44.598 31.104 44.728 31.336 44.896C31.568 45.06 31.76 45.28 31.912 45.556C32.064 45.828 32.14 46.172 32.14 46.588C32.14 47.004 32.056 47.374 31.888 47.698C31.724 48.022 31.494 48.294 31.198 48.514C30.902 48.73 30.558 48.894 30.166 49.006C29.774 49.122 29.354 49.18 28.906 49.18ZM36.2066 49.18C35.5706 49.18 35.0146 49.04 34.5386 48.76C34.0666 48.476 33.6986 48.082 33.4346 47.578C33.1706 47.07 33.0386 46.478 33.0386 45.802C33.0386 45.094 33.1686 44.482 33.4286 43.966C33.6886 43.446 34.0506 43.046 34.5146 42.766C34.9826 42.482 35.5306 42.34 36.1586 42.34C36.8106 42.34 37.3646 42.49 37.8206 42.79C38.2806 43.09 38.6246 43.518 38.8526 44.074C39.0846 44.63 39.1846 45.292 39.1526 46.06H38.0726V45.676C38.0606 44.88 37.8986 44.286 37.5866 43.894C37.2746 43.498 36.8106 43.3 36.1946 43.3C35.5346 43.3 35.0326 43.512 34.6886 43.936C34.3446 44.36 34.1726 44.968 34.1726 45.76C34.1726 46.524 34.3446 47.116 34.6886 47.536C35.0326 47.956 35.5226 48.166 36.1586 48.166C36.5866 48.166 36.9586 48.068 37.2746 47.872C37.5906 47.676 37.8386 47.394 38.0186 47.026L39.0446 47.38C38.7926 47.952 38.4126 48.396 37.9046 48.712C37.4006 49.024 36.8346 49.18 36.2066 49.18ZM33.8126 46.06V45.202H38.6006V46.06H33.8126ZM42.2133 49.18C41.7293 49.18 41.3233 49.092 40.9953 48.916C40.6713 48.736 40.4253 48.5 40.2573 48.208C40.0933 47.916 40.0113 47.596 40.0113 47.248C40.0113 46.908 40.0753 46.614 40.2033 46.366C40.3353 46.114 40.5193 45.906 40.7553 45.742C40.9913 45.574 41.2733 45.442 41.6013 45.346C41.9093 45.262 42.2533 45.19 42.6333 45.13C43.0173 45.066 43.4053 45.008 43.7973 44.956C44.1893 44.904 44.5553 44.854 44.8953 44.806L44.5113 45.028C44.5233 44.452 44.4073 44.026 44.1633 43.75C43.9233 43.474 43.5073 43.336 42.9153 43.336C42.5233 43.336 42.1793 43.426 41.8833 43.606C41.5913 43.782 41.3853 44.07 41.2653 44.47L40.2513 44.164C40.4073 43.596 40.7093 43.15 41.1573 42.826C41.6053 42.502 42.1953 42.34 42.9273 42.34C43.5153 42.34 44.0193 42.446 44.4393 42.658C44.8633 42.866 45.1673 43.182 45.3513 43.606C45.4433 43.806 45.5013 44.024 45.5253 44.26C45.5493 44.492 45.5612 44.736 45.5612 44.992V49H44.6133V47.446L44.8353 47.59C44.5913 48.114 44.2493 48.51 43.8093 48.778C43.3733 49.046 42.8413 49.18 42.2133 49.18ZM42.3753 48.286C42.7593 48.286 43.0913 48.218 43.3713 48.082C43.6553 47.942 43.8833 47.76 44.0553 47.536C44.2273 47.308 44.3393 47.06 44.3913 46.792C44.4513 46.592 44.4833 46.37 44.4873 46.126C44.4953 45.878 44.4993 45.688 44.4993 45.556L44.8713 45.718C44.5233 45.766 44.1813 45.812 43.8453 45.856C43.5093 45.9 43.1913 45.948 42.8913 46C42.5913 46.048 42.3213 46.106 42.0813 46.174C41.9053 46.23 41.7393 46.302 41.5833 46.39C41.4313 46.478 41.3073 46.592 41.2113 46.732C41.1192 46.868 41.0732 47.038 41.0732 47.242C41.0732 47.418 41.1173 47.586 41.2053 47.746C41.2973 47.906 41.4373 48.036 41.6253 48.136C41.8173 48.236 42.0673 48.286 42.3753 48.286ZM47.1213 49V42.52H48.0753V44.086L47.9193 43.882C47.9953 43.682 48.0933 43.498 48.2133 43.33C48.3373 43.162 48.4753 43.024 48.6273 42.916C48.7953 42.78 48.9853 42.676 49.1973 42.604C49.4093 42.532 49.6253 42.49 49.8453 42.478C50.0653 42.462 50.2713 42.476 50.4633 42.52V43.522C50.2393 43.462 49.9933 43.446 49.7253 43.474C49.4573 43.502 49.2093 43.6 48.9813 43.768C48.7733 43.916 48.6113 44.096 48.4953 44.308C48.3833 44.52 48.3053 44.75 48.2613 44.998C48.2173 45.242 48.1953 45.492 48.1953 45.748V49H47.1213ZM54.2106 49.18C53.5546 49.18 52.9966 49.034 52.5366 48.742C52.0806 48.446 51.7326 48.04 51.4926 47.524C51.2526 47.008 51.1286 46.42 51.1206 45.76C51.1286 45.084 51.2546 44.49 51.4986 43.978C51.7466 43.462 52.1006 43.06 52.5606 42.772C53.0206 42.484 53.5746 42.34 54.2226 42.34C54.9066 42.34 55.4946 42.508 55.9866 42.844C56.4826 43.18 56.8146 43.64 56.9826 44.224L55.9266 44.542C55.7906 44.166 55.5686 43.874 55.2606 43.666C54.9566 43.458 54.6066 43.354 54.2106 43.354C53.7666 43.354 53.4006 43.458 53.1126 43.666C52.8246 43.87 52.6106 44.154 52.4706 44.518C52.3306 44.878 52.2586 45.292 52.2546 45.76C52.2626 46.48 52.4286 47.062 52.7526 47.506C53.0806 47.946 53.5666 48.166 54.2106 48.166C54.6346 48.166 54.9866 48.07 55.2666 47.878C55.5466 47.682 55.7586 47.4 55.9026 47.032L56.9826 47.314C56.7586 47.918 56.4086 48.38 55.9326 48.7C55.4566 49.02 54.8826 49.18 54.2106 49.18ZM62.8212 49V45.754C62.8212 45.446 62.7932 45.15 62.7372 44.866C62.6852 44.582 62.5912 44.328 62.4552 44.104C62.3232 43.876 62.1432 43.696 61.9152 43.564C61.6912 43.432 61.4072 43.366 61.0632 43.366C60.7952 43.366 60.5512 43.412 60.3312 43.504C60.1152 43.592 59.9292 43.728 59.7732 43.912C59.6172 44.096 59.4952 44.328 59.4072 44.608C59.3232 44.884 59.2812 45.21 59.2812 45.586L58.5792 45.37C58.5792 44.742 58.6912 44.204 58.9152 43.756C59.1432 43.304 59.4612 42.958 59.8692 42.718C60.2812 42.474 60.7652 42.352 61.3212 42.352C61.7412 42.352 62.0992 42.418 62.3952 42.55C62.6912 42.682 62.9372 42.858 63.1332 43.078C63.3292 43.294 63.4832 43.538 63.5952 43.81C63.7072 44.078 63.7852 44.352 63.8292 44.632C63.8772 44.908 63.9012 45.17 63.9012 45.418V49H62.8212ZM58.2012 49V40.36H59.1612V45.13H59.2812V49H58.2012Z" fill="#8A9BA3"/>
</svg>
