<svg width="20" height="20" viewBox="0 0 20 20" fill="none" xmlns="http://www.w3.org/2000/svg">
<path opacity="0.3" d="M11.9107 13.9226C11.5853 13.5972 11.5853 13.0695 11.9107 12.7441C12.2361 12.4186 12.7638 12.4186 13.0892 12.7441L16.4225 16.0774C16.748 16.4028 16.748 16.9305 16.4225 17.2559C16.0971 17.5814 15.5695 17.5814 15.244 17.2559L11.9107 13.9226Z" fill="#8A9BA3"/>
<path fill-rule="evenodd" clip-rule="evenodd" d="M3.33337 9.16668C3.33337 12.3883 5.94505 15 9.16671 15C12.3884 15 15 12.3883 15 9.16668C15 5.94502 12.3884 3.33334 9.16671 3.33334C5.94505 3.33334 3.33337 5.94502 3.33337 9.16668ZM13.3334 9.16668C13.3334 11.4679 11.4679 13.3333 9.16671 13.3333C6.86552 13.3333 5.00004 11.4679 5.00004 9.16668C5.00004 6.86549 6.86552 5.00001 9.16671 5.00001C11.4679 5.00001 13.3334 6.86549 13.3334 9.16668Z" fill="#8A9BA3"/>
</svg>
