<svg width="31" height="30" viewBox="0 0 31 30" fill="none" xmlns="http://www.w3.org/2000/svg">
<g id="Selected-file">
<path id="Combined Shape Copy" opacity="0.3" fill-rule="evenodd" clip-rule="evenodd" d="M6.57143 1.25H15.3078C15.6625 1.25 16.0057 1.37568 16.2765 1.60474L22.4687 6.84227C22.8057 7.12728 23 7.54621 23 7.98754V23.8542C23 26.0923 22.9744 26.25 20.6786 26.25H6.57143C4.27556 26.25 4.25 26.0923 4.25 23.8542V3.64583C4.25 1.40766 4.27556 1.25 6.57143 1.25ZM9.25 16C9.25 15.4477 9.69772 15 10.25 15H19.5C20.0523 15 20.5 15.4477 20.5 16V16.5C20.5 17.0523 20.0523 17.5 19.5 17.5H10.25C9.69772 17.5 9.25 17.0523 9.25 16.5V16ZM10.25 20C9.69772 20 9.25 20.4477 9.25 21V21.5C9.25 22.0523 9.69772 22.5 10.25 22.5H14.5C15.0523 22.5 15.5 22.0523 15.5 21.5V21C15.5 20.4477 15.0523 20 14.5 20H10.25Z" fill="#F3F9FB"/>
<path id="Combined Shape" fill-rule="evenodd" clip-rule="evenodd" d="M9.07143 3.75H19.0578C19.4125 3.75 19.7557 3.87568 20.0265 4.10474L26.2187 9.34227C26.5557 9.62728 26.75 10.0462 26.75 10.4875V26.3542C26.75 28.5923 26.7244 28.75 24.4286 28.75H9.07143C6.77556 28.75 6.75 28.5923 6.75 26.3542V6.14583C6.75 3.90766 6.77556 3.75 9.07143 3.75ZM9.25 16C9.25 15.4477 9.69772 15 10.25 15H19.5C20.0523 15 20.5 15.4477 20.5 16V16.5C20.5 17.0523 20.0523 17.5 19.5 17.5H10.25C9.69772 17.5 9.25 17.0523 9.25 16.5V16ZM10.25 20C9.69772 20 9.25 20.4477 9.25 21V21.5C9.25 22.0523 9.69772 22.5 10.25 22.5H14.5C15.0523 22.5 15.5 22.0523 15.5 21.5V21C15.5 20.4477 15.0523 20 14.5 20H10.25Z" fill="#F3F9FB"/>
</g>
</svg>
