<svg width="16" height="16" viewBox="0 0 16 16" fill="none" xmlns="http://www.w3.org/2000/svg">
<g id="Tag">
<path id="Combined Shape" fill-rule="evenodd" clip-rule="evenodd" d="M6.64455 13.6485L2.34847 9.35245C1.88384 8.88505 1.88384 8.13018 2.34847 7.66278L7.74184 2.36033C7.96596 2.13998 8.26767 2.01651 8.58197 2.01651H12.8849C13.5468 2.01651 14.0833 2.55303 14.0833 3.21486V7.50553C14.0833 7.8271 13.954 8.13518 13.7246 8.3605L8.34021 13.6485C8.11544 13.8736 7.81043 14 7.49238 14C7.17433 14 6.86932 13.8736 6.64455 13.6485ZM11.2871 6.011C11.949 6.011 12.4855 5.47448 12.4855 4.81265C12.4855 4.15083 11.949 3.61431 11.2871 3.61431C10.6253 3.61431 10.0888 4.15083 10.0888 4.81265C10.0888 5.47448 10.6253 6.011 11.2871 6.011Z" fill="#0F1D24"/>
</g>
</svg>
