<svg width="21" height="26" viewBox="0 0 21 26" fill="none" xmlns="http://www.w3.org/2000/svg">
<path fill-rule="evenodd" clip-rule="evenodd" d="M2.57143 0.75H12.5578C12.9125 0.75 13.2557 0.875684 13.5265 1.10474L19.7187 6.34227C20.0557 6.62728 20.25 7.04621 20.25 7.48754V23.3542C20.25 25.5923 20.2244 25.75 17.9286 25.75H2.57143C0.27556 25.75 0.25 25.5923 0.25 23.3542V3.14583C0.25 0.907656 0.27556 0.75 2.57143 0.75ZM2.75 13C2.75 12.4477 3.19772 12 3.75 12H13C13.5523 12 14 12.4477 14 13V13.5C14 14.0523 13.5523 14.5 13 14.5H3.75C3.19772 14.5 2.75 14.0523 2.75 13.5V13ZM3.75 17C3.19772 17 2.75 17.4477 2.75 18V18.5C2.75 19.0523 3.19772 19.5 3.75 19.5H8C8.55229 19.5 9 19.0523 9 18.5V18C9 17.4477 8.55228 17 8 17H3.75Z" fill="#F3F9FB"/>
</svg>
