<svg width="20" height="20" viewBox="0 0 20 20" fill="none" xmlns="http://www.w3.org/2000/svg">
<g id="User">
<path id="Mask" opacity="0.3" d="M9.99935 9.16673C8.1584 9.16673 6.66602 7.67434 6.66602 5.83339C6.66602 3.99245 8.1584 2.50006 9.99935 2.50006C11.8403 2.50006 13.3327 3.99245 13.3327 5.83339C13.3327 7.67434 11.8403 9.16673 9.99935 9.16673Z" fill="#F3F9FB"/>
<path id="Mask Copy" d="M2.49859 16.8327C2.8216 12.8554 6.04964 10.8333 9.98416 10.8333C13.9741 10.8333 17.2521 12.7443 17.4963 16.8333C17.506 16.9962 17.4963 17.5 16.8703 17.5C13.7823 17.5 9.19365 17.5 3.1043 17.5C2.89531 17.5 2.481 17.0493 2.49859 16.8327Z" fill="#F3F9FB"/>
</g>
</svg>
